<svg id="_008_icon_24_05_etc_Wi-Fi" data-name="008 icon/24/05 etc/Wi-Fi" xmlns="http://www.w3.org/2000/svg" width="24" height="24" viewBox="0 0 24 24">
  <g id="그룹_24132" data-name="그룹 24132" transform="translate(-376.5 -24.5)">
    <circle id="타원_2043" data-name="타원 2043" cx="0.828" cy="0.828" r="0.828" transform="translate(379.335 44.01)" fill="none" stroke="#fff" stroke-linejoin="round" stroke-width="2"/>
    <path id="패스_57096" data-name="패스 57096" d="M383.373,33.211" transform="translate(9.05 12.431)" fill="none" stroke="#fff" stroke-linecap="round" stroke-linejoin="round" stroke-width="2"/>
    <path id="패스_57097" data-name="패스 57097" d="M381.26,33.2" transform="translate(5.126 12.417)" fill="none" stroke="#fff" stroke-linecap="round" stroke-linejoin="round" stroke-width="2"/>
    <path id="패스_57098" data-name="패스 57098" d="M378.781,26.551A17.556,17.556,0,0,1,397.9,45.665" transform="translate(0.553 0)" fill="none" stroke="#fff" stroke-linecap="round" stroke-linejoin="round" stroke-width="2"/>
    <path id="패스_57100" data-name="패스 57100" d="M382.158,29.842a12.7,12.7,0,0,1,3.608,10.005" transform="translate(6.706 5.795)" fill="none" stroke="#fff" stroke-linecap="round" stroke-linejoin="round" stroke-width="2"/>
    <path id="패스_57101" data-name="패스 57101" d="M388.794,32.26a12.7,12.7,0,0,0-10.005-3.608" transform="translate(0.569 3.876)" fill="none" stroke="#fff" stroke-linecap="round" stroke-linejoin="round" stroke-width="2"/>
    <path id="패스_57649" data-name="패스 57649" d="M386.114,38.071a6.7,6.7,0,0,0-7.318-7.317" transform="translate(0.583 7.55)" fill="none" stroke="#fff" stroke-linecap="round" stroke-linejoin="round" stroke-width="2"/>
  </g>
  <rect id="사각형_21482" data-name="사각형 21482" width="24" height="24" fill="none"/>
</svg>
