<svg xmlns="http://www.w3.org/2000/svg" width="134.159" height="133.569" viewBox="0 0 134.159 133.569">
  <g id="그룹_25448" data-name="그룹 25448" transform="translate(-239.313 -26.832)">
    <path id="동그라미" d="M45.081,90.163A45.094,45.094,0,0,1,27.533,3.543,45.081,45.081,0,0,1,76.963,76.957,44.945,44.945,0,0,1,45.081,90.163Zm.36-60.106A15.383,15.383,0,1,0,60.825,45.439,15.4,15.4,0,0,0,45.442,30.057Z" transform="translate(362.48 71.914) rotate(120)" fill="#0324bf" opacity="0.152"/>
    <path id="동그라미-2" data-name="동그라미" d="M22.911,45.822A22.917,22.917,0,0,1,13.993,1.8,22.91,22.91,0,0,1,39.113,39.11a22.841,22.841,0,0,1-16.2,6.712Zm.183-30.546a7.818,7.818,0,1,0,7.818,7.817A7.827,7.827,0,0,0,23.094,15.275Z" transform="translate(373.473 128) rotate(135)" fill="#0324bf" opacity="0.152"/>
  </g>
</svg>
