<svg id="Illust-개통지연" xmlns="http://www.w3.org/2000/svg" xmlns:xlink="http://www.w3.org/1999/xlink" width="80" height="80" viewBox="0 0 80 80">
  <defs>
    <clipPath id="clip-path">
      <rect id="사각형_22702" data-name="사각형 22702" width="80" height="80" fill="none"/>
    </clipPath>
  </defs>
  <g id="그룹_26183" data-name="그룹 26183" clip-path="url(#clip-path)">
    <path id="패스_57865" data-name="패스 57865" d="M80,40A40,40,0,1,1,40,0,40,40,0,0,1,80,40" fill="#d4faf9"/>
    <g id="그룹_26188" data-name="그룹 26188" transform="translate(4 -0.147)">
      <path id="패스_57868" data-name="패스 57868" d="M44.738,22.369A22.369,22.369,0,1,1,22.369,0,22.369,22.369,0,0,1,44.738,22.369" transform="translate(14.316 17.406)" fill="#fff"/>
      <path id="패스_57866" data-name="패스 57866" d="M12.933,35.023a22.841,22.841,0,1,1,2.652,10.7" transform="translate(1.105 4.977)" fill="none" stroke="#161616" stroke-miterlimit="10" stroke-width="2"/>
      <line id="선_5930" data-name="선 5930" y1="14.44" transform="translate(35.461 27.355)" fill="none" stroke="#161616" stroke-linecap="round" stroke-linejoin="bevel" stroke-width="2"/>
      <line id="선_5931" data-name="선 5931" x2="12.332" y2="6.669" transform="translate(35.592 41.797)" fill="none" stroke="#161616" stroke-linecap="round" stroke-linejoin="bevel" stroke-width="2"/>
      <path id="패스_57867" data-name="패스 57867" d="M6.359,34.2l5.679,5.045L17.716,34.2" transform="translate(2.279 1.037)" fill="none" stroke="#161616" stroke-linecap="round" stroke-linejoin="round" stroke-width="2"/>
    </g>
  </g>
</svg>
