<svg id="_008_icon_24_05_etc_Wi-Fi" data-name="008 icon/24/05 etc/Wi-Fi" xmlns="http://www.w3.org/2000/svg" width="28" height="28" viewBox="0 0 28 28">
  <g id="그룹_24132" data-name="그룹 24132" transform="translate(3.25 3.158)">
    <circle id="타원_2043" data-name="타원 2043" cx="0.949" cy="0.949" r="0.949" transform="translate(0 19.209)" fill="none" stroke="#f4fafa" stroke-linejoin="round" stroke-width="2"/>
    <path id="패스_57096" data-name="패스 57096" d="M383.373,33.211" transform="translate(-368.959 -12.132)" fill="none" stroke="#f4fafa" stroke-linecap="round" stroke-linejoin="round" stroke-width="2"/>
    <path id="패스_57097" data-name="패스 57097" d="M381.26,33.2" transform="translate(-373.495 -12.149)" fill="none" stroke="#f4fafa" stroke-linecap="round" stroke-linejoin="round" stroke-width="2"/>
    <path id="패스_57098" data-name="패스 57098" d="M378.781,26.557a19.334,19.334,0,0,1,21.05,21.05" transform="translate(-378.781 -26.5)" fill="none" stroke="#f4fafa" stroke-linecap="round" stroke-linejoin="round" stroke-width="2"/>
    <path id="패스_57100" data-name="패스 57100" d="M382.158,29.842a14.557,14.557,0,0,1,4.137,11.47" transform="translate(-371.765 -20.233)" fill="none" stroke="#f4fafa" stroke-linecap="round" stroke-linejoin="round" stroke-width="2"/>
    <path id="패스_57101" data-name="패스 57101" d="M390.259,32.793a14.556,14.556,0,0,0-11.47-4.137" transform="translate(-378.762 -22.08)" fill="none" stroke="#f4fafa" stroke-linecap="round" stroke-linejoin="round" stroke-width="2"/>
    <path id="패스_57649" data-name="패스 57649" d="M387.185,39.145a7.68,7.68,0,0,0-8.389-8.389" transform="translate(-378.745 -18.09)" fill="none" stroke="#f4fafa" stroke-linecap="round" stroke-linejoin="round" stroke-width="2"/>
  </g>
  <rect id="사각형_21482" data-name="사각형 21482" width="28" height="28" fill="none"/>
</svg>
