<svg id="_008_icon_24_05_etc_Wi-Fi" data-name="008 icon/24/05 etc/Wi-Fi" xmlns="http://www.w3.org/2000/svg" width="28" height="28" viewBox="0 0 28 28">
  <g id="그룹_24132" data-name="그룹 24132" transform="translate(3.301 3.208)">
    <circle id="타원_2043" data-name="타원 2043" cx="0.964" cy="0.964" r="0.964" transform="translate(0.001 19.514)" fill="none" stroke="#3accc8" stroke-linejoin="round" stroke-width="2"/>
    <path id="패스_57096" data-name="패스 57096" d="M383.373,33.211" transform="translate(-368.73 -11.796)" fill="none" stroke="#3accc8" stroke-linecap="round" stroke-linejoin="round" stroke-width="2"/>
    <path id="패스_57097" data-name="패스 57097" d="M381.26,33.2" transform="translate(-373.371 -11.814)" fill="none" stroke="#3accc8" stroke-linecap="round" stroke-linejoin="round" stroke-width="2"/>
    <path id="패스_57098" data-name="패스 57098" d="M378.781,26.558a19.642,19.642,0,0,1,21.385,21.385" transform="translate(-378.781 -26.5)" fill="none" stroke="#3accc8" stroke-linecap="round" stroke-linejoin="round" stroke-width="2"/>
    <path id="패스_57100" data-name="패스 57100" d="M382.158,29.842a14.788,14.788,0,0,1,4.2,11.653" transform="translate(-371.599 -20.08)" fill="none" stroke="#3accc8" stroke-linecap="round" stroke-linejoin="round" stroke-width="2"/>
    <path id="패스_57101" data-name="패스 57101" d="M390.442,32.86a14.788,14.788,0,0,0-11.652-4.2" transform="translate(-378.761 -21.976)" fill="none" stroke="#3accc8" stroke-linecap="round" stroke-linejoin="round" stroke-width="2"/>
    <path id="패스_57649" data-name="패스 57649" d="M387.318,39.279a7.8,7.8,0,0,0-8.522-8.522" transform="translate(-378.744 -17.888)" fill="none" stroke="#3accc8" stroke-linecap="round" stroke-linejoin="round" stroke-width="2"/>
  </g>
  <rect id="사각형_21482" data-name="사각형 21482" width="28" height="28" fill="none"/>
</svg>
