<svg id="AWARD_WINNER" data-name="AWARD WINNER" xmlns="http://www.w3.org/2000/svg" width="173.479" height="50.643" viewBox="0 0 173.479 50.643">
  <path id="패스_11438" data-name="패스 11438" d="M-188.383,227.954a12.073,12.073,0,0,0-8.243-3.118,11.9,11.9,0,0,0-8.719,3.283,10.8,10.8,0,0,0-3.071,7.472v3.347h-4.92c-.15,0-.3.007-.446.02a13.8,13.8,0,0,0-12.425,14.215c0,.089,0,.179.008.267.293,5.108,3.943,12.709,12.8,12.709h4.987v9.329h9.705v-9.329h8.424v-9.533h-8.424v-8.143h1.928a12.107,12.107,0,0,0,8.324-2.841,11.336,11.336,0,0,0,3.563-8.811,11.707,11.707,0,0,0-3.487-8.866Zm-20.033,28.661H-213.4c-2.454,0-2.987-2.474-3.1-3.609.06-3.244,1.717-4.534,3.5-4.534h4.585v8.143Zm9.738-17.384v-3.459a2.416,2.416,0,0,1,2.425-1.895c2.061,0,2.327,1.511,2.327,2.514s.032,2.84-4.752,2.84Z" transform="translate(226.208 -224.835)" fill="#fff" fill-rule="evenodd"/>
  <path id="패스_11439" data-name="패스 11439" d="M-164.058,229.96h.093l3.026,9.32h2.738l-4.165-12.08h-3.291l-4.17,12.08h2.737l3.033-9.32Zm-3.2,6.566h6.466v-1.993h-6.466v1.993Zm12.636,2.716a1.515,1.515,0,0,0,.516-.513,1.326,1.326,0,0,0,.2-.71,1.333,1.333,0,0,0-.425-.991,1.378,1.378,0,0,0-.99-.413,1.371,1.371,0,0,0-1,.413,1.348,1.348,0,0,0-.415.991,1.36,1.36,0,0,0,.415,1,1.362,1.362,0,0,0,1,.416,1.338,1.338,0,0,0,.7-.192Zm10.382-12.042v7.6h-.107l-5.214-7.6h-2.242v12.08h2.555v-7.6h.088l5.255,7.6h2.206V227.2Zm6.771,12.042a1.5,1.5,0,0,0,.516-.513,1.326,1.326,0,0,0,.2-.71,1.336,1.336,0,0,0-.424-.991,1.381,1.381,0,0,0-.991-.413,1.369,1.369,0,0,0-1,.413,1.349,1.349,0,0,0-.416.991,1.361,1.361,0,0,0,.416,1,1.36,1.36,0,0,0,1,.416,1.338,1.338,0,0,0,.7-.192Z" transform="translate(228.164 -224.745)" fill="#fff"/>
  <path id="패스_11440" data-name="패스 11440" d="M-128.5,238.555a4.923,4.923,0,0,0,2.035-2.083,6.888,6.888,0,0,0,.712-3.244,6.843,6.843,0,0,0-.712-3.233,4.933,4.933,0,0,0-2.026-2.073,6.428,6.428,0,0,0-3.138-.723h-4.318v12.08h4.284a6.488,6.488,0,0,0,3.163-.725Zm-4.893-9.167h1.628a4.107,4.107,0,0,1,1.906.4,2.577,2.577,0,0,1,1.164,1.251,5.241,5.241,0,0,1,.393,2.189,5.294,5.294,0,0,1-.393,2.2,2.583,2.583,0,0,1-1.168,1.256,4.082,4.082,0,0,1-1.908.4h-1.622v-7.7Zm10.886,9.853a1.5,1.5,0,0,0,.515-.513,1.327,1.327,0,0,0,.2-.71,1.33,1.33,0,0,0-.426-.991,1.373,1.373,0,0,0-.989-.413,1.367,1.367,0,0,0-1,.413,1.348,1.348,0,0,0-.415.991,1.36,1.36,0,0,0,.415,1,1.358,1.358,0,0,0,1,.416,1.338,1.338,0,0,0,.7-.192Z" transform="translate(229.377 -224.745)" fill="#fff"/>
  <path id="패스_11441" data-name="패스 11441" d="M-111.973,229.96h.1l3.025,9.32h2.738l-4.165-12.08h-3.291l-4.17,12.08H-115l3.032-9.32Zm-3.2,6.566h6.465v-1.993h-6.465v1.993Zm14.491,2.754,2.294-7.9h.093l2.3,7.9h2.488l3.458-12.08h-2.791l-2,8.411h-.1l-2.2-8.411h-2.389l-2.206,8.394h-.1l-2-8.394h-2.79l3.455,12.08Z" transform="translate(229.986 -224.745)" fill="#fff"/>
  <path id="패스_11442" data-name="패스 11442" d="M-85.8,229.96h.093l3.025,9.32h2.738l-4.165-12.08H-87.4l-4.17,12.08h2.737l3.034-9.32Zm-3.2,6.566h6.465v-1.993H-89v1.993Zm13.065,2.754v-9.993h1.724a3.041,3.041,0,0,1,1.224.216,1.5,1.5,0,0,1,.724.628,1.98,1.98,0,0,1,.24,1.014,1.9,1.9,0,0,1-.24,1,1.449,1.449,0,0,1-.722.6,3.184,3.184,0,0,1-1.215.2H-76.98V235h3.19a5.557,5.557,0,0,0,2.374-.46,3.364,3.364,0,0,0,1.5-1.324,3.956,3.956,0,0,0,.519-2.068,4.106,4.106,0,0,0-.511-2.085,3.437,3.437,0,0,0-1.48-1.375,5.167,5.167,0,0,0-2.34-.487h-4.765v12.08Zm1.217-5.5,2.936,5.5h2.821l-3-5.5Z" transform="translate(230.876 -224.745)" fill="#fff"/>
  <path id="패스_11443" data-name="패스 11443" d="M-61.028,238.555a4.925,4.925,0,0,0,2.036-2.083,6.9,6.9,0,0,0,.712-3.244,6.855,6.855,0,0,0-.712-3.233,4.939,4.939,0,0,0-2.026-2.073,6.431,6.431,0,0,0-3.138-.723h-4.318v12.08h4.283a6.483,6.483,0,0,0,3.163-.725Zm-4.893-9.167h1.629a4.11,4.11,0,0,1,1.906.4,2.577,2.577,0,0,1,1.164,1.251,5.241,5.241,0,0,1,.393,2.189,5.294,5.294,0,0,1-.393,2.2,2.583,2.583,0,0,1-1.168,1.256,4.085,4.085,0,0,1-1.908.4h-1.623v-7.7Z" transform="translate(231.758 -224.745)" fill="#fff"/>
  <path id="패스_11444" data-name="패스 11444" d="M-163.961,255.279l2.3-7.9h.094l2.3,7.9h2.49l3.457-12.08h-2.791l-2,8.411h-.106l-2.2-8.411h-2.39l-2.206,8.395h-.1l-2-8.395h-2.791l3.457,12.08Zm12-12.08v12.08h2.554V243.2Zm12.223,0v7.6h-.107l-5.214-7.6H-147.3v12.08h2.554v-7.6h.088l5.256,7.6h2.206V243.2Zm12.21,0v7.6h-.1l-5.216-7.6h-2.241v12.08h2.554v-7.6h.089l5.255,7.6h2.206V243.2Zm12.811,12.08v-2.105h-5.608V250.29h5.166v-2.106h-5.166v-2.878h5.587V243.2h-8.142v12.08Zm4.566,0v-9.993h1.722a3.034,3.034,0,0,1,1.224.216,1.516,1.516,0,0,1,.726.628,2,2,0,0,1,.24,1.014,1.92,1.92,0,0,1-.24,1,1.463,1.463,0,0,1-.724.6,3.177,3.177,0,0,1-1.215.2H-111.2V251H-108a5.557,5.557,0,0,0,2.374-.46,3.364,3.364,0,0,0,1.5-1.324,3.937,3.937,0,0,0,.519-2.068,4.106,4.106,0,0,0-.511-2.085,3.425,3.425,0,0,0-1.48-1.375,5.158,5.158,0,0,0-2.338-.487h-4.766v12.08Zm1.215-5.5,2.938,5.5h2.819l-3-5.5Z" transform="translate(228.1 -224.602)" fill="#fff"/>
  <path id="패스_11445" data-name="패스 11445" d="M-160.648,271.286V269.2h-5.074v-.082l1.764-1.729a21.678,21.678,0,0,0,1.929-1.944,5.682,5.682,0,0,0,.953-1.476,3.605,3.605,0,0,0,.268-1.352,3.269,3.269,0,0,0-.537-1.852,3.6,3.6,0,0,0-1.5-1.266,5.239,5.239,0,0,0-2.262-.457,4.984,4.984,0,0,0-2.23.478,3.585,3.585,0,0,0-1.5,1.351,3.852,3.852,0,0,0-.537,2.06h2.424a2.088,2.088,0,0,1,.224-1,1.538,1.538,0,0,1,.636-.643,2,2,0,0,1,.968-.224,2.089,2.089,0,0,1,.95.21,1.607,1.607,0,0,1,.66.595,1.7,1.7,0,0,1,.242.918,2.041,2.041,0,0,1-.194.888,3.647,3.647,0,0,1-.569.835q-.375.425-.924.955l-4.3,3.982v1.841Zm9.2-.479a4.7,4.7,0,0,0,1.679-2.153,8.843,8.843,0,0,0,.587-3.4,8.514,8.514,0,0,0-.585-3.365,4.64,4.64,0,0,0-1.684-2.121,4.582,4.582,0,0,0-2.61-.732,4.6,4.6,0,0,0-2.61.729,4.6,4.6,0,0,0-1.681,2.121,8.647,8.647,0,0,0-.588,3.368,8.731,8.731,0,0,0,.581,3.391,4.688,4.688,0,0,0,1.681,2.153,4.567,4.567,0,0,0,2.616.751,4.531,4.531,0,0,0,2.613-.744Zm-3.816-1.838a2.987,2.987,0,0,1-.793-1.392,8.163,8.163,0,0,1-.28-2.32,6.153,6.153,0,0,1,.625-3.092,1.866,1.866,0,0,1,1.652-1.032,1.735,1.735,0,0,1,1.2.46,2.97,2.97,0,0,1,.79,1.375,7.9,7.9,0,0,1,.281,2.289,6.247,6.247,0,0,1-.614,3.131,1.869,1.869,0,0,1-1.658,1.044,1.735,1.735,0,0,1-1.2-.463Zm16.51,2.316V269.2h-5.073v-.082l1.764-1.729a21.815,21.815,0,0,0,1.929-1.944,5.674,5.674,0,0,0,.952-1.476,3.606,3.606,0,0,0,.269-1.352,3.277,3.277,0,0,0-.537-1.852,3.616,3.616,0,0,0-1.5-1.266,5.243,5.243,0,0,0-2.262-.457,4.984,4.984,0,0,0-2.23.478,3.594,3.594,0,0,0-1.5,1.351,3.852,3.852,0,0,0-.537,2.06h2.424a2.088,2.088,0,0,1,.224-1,1.546,1.546,0,0,1,.637-.643,2,2,0,0,1,.968-.224,2.092,2.092,0,0,1,.95.21,1.613,1.613,0,0,1,.66.595,1.7,1.7,0,0,1,.242.918,2.042,2.042,0,0,1-.2.888,3.614,3.614,0,0,1-.569.835q-.375.425-.923.955l-4.3,3.982v1.841Zm9.2-.479a4.708,4.708,0,0,0,1.678-2.153,8.842,8.842,0,0,0,.588-3.4,8.533,8.533,0,0,0-.583-3.365,4.643,4.643,0,0,0-1.686-2.121,4.585,4.585,0,0,0-2.609-.732,4.593,4.593,0,0,0-2.61.729,4.608,4.608,0,0,0-1.682,2.121,8.648,8.648,0,0,0-.587,3.368,8.731,8.731,0,0,0,.581,3.391,4.681,4.681,0,0,0,1.681,2.153,4.564,4.564,0,0,0,2.616.751,4.536,4.536,0,0,0,2.613-.744Zm-3.817-1.838a3,3,0,0,1-.793-1.392,8.2,8.2,0,0,1-.28-2.32,6.176,6.176,0,0,1,.625-3.092,1.866,1.866,0,0,1,1.653-1.032,1.737,1.737,0,0,1,1.2.46,2.979,2.979,0,0,1,.791,1.375,7.977,7.977,0,0,1,.279,2.289,6.224,6.224,0,0,1-.614,3.131,1.867,1.867,0,0,1-1.657,1.044,1.737,1.737,0,0,1-1.2-.463Z" transform="translate(228.166 -224.501)" fill="#fff"/>
</svg>
