<svg xmlns="http://www.w3.org/2000/svg" xmlns:xlink="http://www.w3.org/1999/xlink" width="80" height="80" viewBox="0 0 80 80">
  <defs>
    <clipPath id="clip-path">
      <rect id="사각형_22856" data-name="사각형 22856" width="48" height="48" transform="translate(0 0.435)" fill="none" stroke="#bbb" stroke-width="2"/>
    </clipPath>
  </defs>
  <g id="그룹_26445" data-name="그룹 26445" transform="translate(-140 -252)">
    <g id="그룹_26411" data-name="그룹 26411">
      <path id="패스_57936" data-name="패스 57936" d="M80,40A40,40,0,1,1,40,0,40,40,0,0,1,80,40" transform="translate(140 252)" fill="#f4f4f4"/>
      <g id="그룹_26408" data-name="그룹 26408" transform="translate(156 267.349)">
        <g id="그룹_26405" data-name="그룹 26405" transform="translate(0 0.216)" clip-path="url(#clip-path)">
          <path id="패스_57944" data-name="패스 57944" d="M19.625,20.664l.428-.215a6.559,6.559,0,0,0,0-11.735L19.625,8.5" transform="translate(18.694 8.51)" fill="none" stroke="#bbb" stroke-miterlimit="10" stroke-width="2"/>
          <path id="패스_57943" data-name="패스 57943" d="M11.582,15l3.651,11.866a1.014,1.014,0,0,1-.969,1.312H10.3a1.015,1.015,0,0,1-.969-.716L5.5,15" transform="translate(4.181 15.188)" fill="none" stroke="#bbb" stroke-miterlimit="10" stroke-width="2"/>
          <path id="패스_57942" data-name="패스 57942" d="M35.939,5.486a2.432,2.432,0,0,0-3.311-2.269l-18.21,7.838h-9.9A1.014,1.014,0,0,0,3.5,12.069V26.263a1.014,1.014,0,0,0,1.014,1.014h9.9l18.208,7.84a2.432,2.432,0,0,0,3.313-2.267Z" transform="translate(2.127 2.911)" fill="none" stroke="#bbb" stroke-miterlimit="10" stroke-width="2"/>
        </g>
      </g>
    </g>
  </g>
</svg>
