<svg xmlns="http://www.w3.org/2000/svg" xmlns:xlink="http://www.w3.org/1999/xlink" width="56" height="56" viewBox="0 0 56 56">
  <defs>
    <clipPath id="clip-path">
      <rect id="사각형_22444" data-name="사각형 22444" width="56" height="56" transform="translate(10278 10187.657)" fill="#d8d8d8" stroke="#000" stroke-width="1"/>
    </clipPath>
  </defs>
  <g id="_008_icon_56_01_etc_Wi-Fi" data-name="008 icon/56/01 etc/Wi-Fi" transform="translate(-10278 -10187.657)" clip-path="url(#clip-path)">
    <g id="사각형_22442" data-name="사각형 22442" transform="translate(10290 10189.657)" fill="#fff" stroke="#000" stroke-width="2">
      <rect width="32" height="51" rx="8" stroke="none"/>
      <rect x="1" y="1" width="30" height="49" rx="7" fill="none"/>
    </g>
    <rect id="사각형_22443" data-name="사각형 22443" width="5" height="2" transform="translate(10304 10194.657)"/>
    <circle id="타원_2617" data-name="타원 2617" cx="1.417" cy="1.417" r="1.417" transform="matrix(0.999, -0.035, 0.035, 0.999, 10304.917, 10233.131)"/>
    <g id="wifi" transform="translate(10298.896 10208.949)">
      <path id="패스_57731" data-name="패스 57731" d="M1676.773,1559.408a9.738,9.738,0,0,1,15.583-.049" transform="translate(-1676.773 -1555.487)" fill="none" stroke="#3accc8" stroke-linecap="round" stroke-miterlimit="10" stroke-width="3"/>
      <path id="패스_57732" data-name="패스 57732" d="M1686.246,1571.981a5.827,5.827,0,0,1,9.383-.109" transform="translate(-1683.162 -1564.397)" fill="none" stroke="#3accc8" stroke-linecap="round" stroke-miterlimit="10" stroke-width="3"/>
      <path id="패스_57733" data-name="패스 57733" d="M1695.681,1580.051a1.771,1.771,0,1,1-1.771,1.771A1.771,1.771,0,0,1,1695.681,1580.051Z" transform="translate(-1687.889 -1570.134)" fill="#3accc8"/>
    </g>
  </g>
</svg>
