<svg id="_008_icon_56_01_etc_watch-in_use" data-name="008 icon/56/01 etc/watch-in use" xmlns="http://www.w3.org/2000/svg" xmlns:xlink="http://www.w3.org/1999/xlink" width="56" height="56" viewBox="0 0 56 56">
  <defs>
    <clipPath id="clip-path">
      <rect id="사각형_22465" data-name="사각형 22465" width="56" height="56" transform="translate(10189 9017)" fill="#fff" stroke="#707070" stroke-width="1"/>
    </clipPath>
  </defs>
  <g id="_008_icon_56_01_etc_watch-in_use-2" data-name="008 icon/56/01 etc/watch-in use" transform="translate(-10189 -9017)" clip-path="url(#clip-path)">
    <g id="그룹_25380" data-name="그룹 25380" transform="translate(10192.691 9021.446)">
      <path id="패스_57751" data-name="패스 57751" d="M423.239,339.816h18.3l1.69-.378,4.855-1.487,4.152-.622,10.756-.042s2.043.368,2.55,1.864c0,0,.733,3.519-2.8,4l2.956.033a3.038,3.038,0,0,1,2.019,2.027s.079,2.232-1.624,2.994a3.508,3.508,0,0,1,2.307,2.846,2.905,2.905,0,0,1-1.732,2.742s1.077.238,1.194,2.385c0,0-.376,3.245-3.236,3.251H462.74a5.683,5.683,0,0,1-4.226,4.212s-6.733,1.492-11.407-3.3a48.893,48.893,0,0,0-4.723-3.453s-1.744-.589-6.578-.591l-9.8-.016" transform="translate(-418.818 -336.078)" fill="#fff"/>
      <path id="패스_57752" data-name="패스 57752" d="M500.421,385.655l-.718,1.353a5.586,5.586,0,0,1-4.943,2.975h-2.61" transform="translate(-456.275 -362.734)" fill="none" stroke="#222" stroke-linecap="round" stroke-linejoin="round" stroke-width="2"/>
      <path id="패스_57753" data-name="패스 57753" d="M425.247,378.79h5.48s9.893-.2,12.225.4a3.83,3.83,0,0,1,.863.515l.014.011,4.2,3.1" transform="translate(-419.793 -358.996)" fill="none" stroke="#222" stroke-linecap="round" stroke-linejoin="round" stroke-width="2"/>
      <path id="패스_57754" data-name="패스 57754" d="M424.531,339.78h17.245a5.461,5.461,0,0,0,1.938-.373,30.325,30.325,0,0,1,10.864-2.177c4.659,0,8.513.021,8.551.021h0c.128,0,.262,0,.394,0a2.781,2.781,0,0,1,2.714,2.783v.275a2.783,2.783,0,0,1-2.728,2.784l-.215,0" transform="translate(-419.365 -336.487)" fill="none" stroke="#222" stroke-linecap="round" stroke-linejoin="round" stroke-width="2"/>
      <path id="패스_57755" data-name="패스 57755" d="M504.147,360.991h1.6a2.907,2.907,0,0,1,2.9,2.906v.171a2.91,2.91,0,0,1-1.524,2.557,2.731,2.731,0,0,1,.985,2.1v.3a3.257,3.257,0,0,1-3.244,3.251c-1.907,0-4.767.011-7.559.011" transform="translate(-459.072 -349.366)" fill="none" stroke="#222" stroke-linecap="round" stroke-linejoin="round" stroke-width="2"/>
      <path id="패스_57756" data-name="패스 57756" d="M508.818,350.087h2.724a2.438,2.438,0,0,1,2.438,2.432v.113a2.443,2.443,0,0,1-2.438,2.442h-3.2" transform="translate(-465.053 -343.455)" fill="none" stroke="#222" stroke-linecap="round" stroke-linejoin="round" stroke-width="2"/>
      <line id="선_5892" data-name="선 5892" x1="4.775" transform="translate(43.346 17.274)" fill="none" stroke="#222" stroke-linecap="round" stroke-linejoin="round" stroke-width="2"/>
      <path id="패스_57757" data-name="패스 57757" d="M413.585,339.455h5.371V359.3h-5.371" transform="translate(-413.585 -337.692)" fill="#d4faf9" stroke="#222" stroke-linecap="round" stroke-linejoin="round" stroke-width="2"/>
      <path id="패스_57758" data-name="패스 57758" d="M447.885,341.574l-.5-2.96a1.187,1.187,0,0,0-1.209-1.1H436.99a1.189,1.189,0,0,0-1.212,1.1l-.446,2.75a.51.51,0,0,0-.007.086Z" transform="translate(-425.477 -337.514)" fill="#fde9a2" stroke="#222" stroke-linecap="round" stroke-linejoin="round" stroke-width="2"/>
      <path id="패스_57759" data-name="패스 57759" d="M447.885,374.3l-.5,2.96a1.186,1.186,0,0,1-1.209,1.1H436.99a1.189,1.189,0,0,1-1.212-1.1l-.446-2.75a.512.512,0,0,1-.007-.086Z" transform="translate(-425.477 -356.021)" fill="#fde9a2" stroke="#222" stroke-linecap="round" stroke-linejoin="round" stroke-width="2"/>
      <path id="패스_57760" data-name="패스 57760" d="M447.98,353.2v-5.98a1.733,1.733,0,0,0-1.729-1.733H434.256a1.733,1.733,0,0,0-1.73,1.733v10.729a1.733,1.733,0,0,0,1.73,1.733h11.9a1.758,1.758,0,0,0,1.825-1.691Z" transform="translate(-424.069 -341.528)" fill="#fff" stroke="#222" stroke-linecap="round" stroke-linejoin="round" stroke-width="2"/>
      <g id="그룹_25379" data-name="그룹 25379" transform="translate(12.956 11.06)">
        <path id="패스_57761" data-name="패스 57761" d="M449.655,396.715v-1.068a5.116,5.116,0,0,0-.69-2.5l-1.893-3.288a12.766,12.766,0,0,1-1.656-6.284v-3.693a6.3,6.3,0,0,1,2.22-4.8l2.3-1.994v-9.674a2.247,2.247,0,0,1,2.243-2.114h.026a2.325,2.325,0,0,1,2.326,2.114v9.371a2.167,2.167,0,0,1,2.134-2.135h-.029a2.124,2.124,0,0,1,2.084,2.135v1.673c0-1.155-.082-2.886,2.083-2.962h.022a2.079,2.079,0,0,1,2.035,2.131V375.3a2.289,2.289,0,0,1,2.151-2.255h-.032a1.98,1.98,0,0,1,2.071,1.977l.277,10.067a12.754,12.754,0,0,1-1.981,6.829l-1.551,2.421a5.132,5.132,0,0,0-.8,2.477Z" transform="translate(-445.416 -361.265)" fill="#fff"/>
        <path id="패스_57762" data-name="패스 57762" d="M450.608,442.042v-3.95h16.463v3.95" transform="translate(-448.23 -402.889)" fill="#d4faf9" stroke="#222" stroke-linecap="round" stroke-linejoin="round" stroke-width="2"/>
        <path id="패스_57763" data-name="패스 57763" d="M465.178,386.706v-3.012a2.146,2.146,0,0,1,2.074-2.117h.06a2.1,2.1,0,0,1,2.034,2.117v3.012" transform="translate(-456.127 -372.257)" fill="none" stroke="#222" stroke-linecap="round" stroke-linejoin="round" stroke-width="2"/>
        <path id="패스_57764" data-name="패스 57764" d="M474.28,388.939v-3.047a2.146,2.146,0,0,1,2.123-2.163h.019a2.127,2.127,0,0,1,2.084,2.163v3.047" transform="translate(-461.06 -373.424)" fill="none" stroke="#222" stroke-linecap="round" stroke-linejoin="round" stroke-width="2"/>
        <path id="패스_57765" data-name="패스 57765" d="M483.533,392.04V388.9a2.145,2.145,0,0,1,2.2-2.1h.065a2.086,2.086,0,0,1,2.128,2.1v11.2c0,2.134-1.157,4.214-2.3,6.017l-1.316,2.055a3.93,3.93,0,0,0-.613,1.9" transform="translate(-466.076 -375.091)" fill="none" stroke="#222" stroke-linecap="round" stroke-linejoin="round" stroke-width="2"/>
        <path id="패스_57766" data-name="패스 57766" d="M449.788,410.271v-.79a4.621,4.621,0,0,0-.627-2.257l-1.891-3.285a13.279,13.279,0,0,1-1.722-6.53v-3.693a6.789,6.789,0,0,1,2.394-5.18l2.019-1.717" transform="translate(-445.488 -375.099)" fill="none" stroke="#222" stroke-linecap="round" stroke-linejoin="round" stroke-width="2"/>
        <path id="패스_57767" data-name="패스 57767" d="M455.409,378.407V363.549a2.234,2.234,0,0,1,2.189-2.32h.023a2.3,2.3,0,0,1,2.263,2.32v11.914" transform="translate(-450.832 -361.228)" fill="none" stroke="#222" stroke-linecap="round" stroke-linejoin="round" stroke-width="2"/>
      </g>
    </g>
  </g>
</svg>
