<svg id="_008_icon_16_03_etc_caution" data-name="008 icon/16/03 etc/caution" xmlns="http://www.w3.org/2000/svg" xmlns:xlink="http://www.w3.org/1999/xlink" width="32" height="32" viewBox="0 0 32 32">
  <defs>
    <clipPath id="clip-path">
      <rect id="사각형_22421" data-name="사각형 22421" width="32" height="32" transform="translate(0 0)" fill="#fff" stroke="#707070" stroke-width="2"/>
    </clipPath>
  </defs>
  <g id="_008_icon_16_03_etc_caution-2" data-name="008 icon/16/03 etc/caution" transform="translate(0 0)" clip-path="url(#clip-path)">
    <g id="패스_57718" data-name="패스 57718" transform="translate(1.617 1.276)" fill="none">
      <path d="M14.553,0A14.553,14.553,0,1,1,0,14.553,14.553,14.553,0,0,1,14.553,0Z" stroke="none"/>
      <path d="M 14.55347919464111 2 C 11.20031929016113 2 8.047868728637695 3.305789947509766 5.676828384399414 5.676828384399414 C 3.305789947509766 8.047868728637695 2 11.20031929016113 2 14.55347919464111 C 2 17.90662956237793 3.305789947509766 21.05908966064453 5.676828384399414 23.43013000488281 C 8.047868728637695 25.80116844177246 11.20031929016113 27.10695838928223 14.55347919464111 27.10695838928223 C 17.90662956237793 27.10695838928223 21.05908966064453 25.80116844177246 23.43013000488281 23.43013000488281 C 25.80116844177246 21.05908966064453 27.10695838928223 17.90662956237793 27.10695838928223 14.55347919464111 C 27.10695838928223 11.20031929016113 25.80116844177246 8.047868728637695 23.43013000488281 5.676828384399414 C 21.05908966064453 3.305789947509766 17.90662956237793 2 14.55347919464111 2 M 14.55347919464111 0 C 22.59113883972168 0 29.10695838928223 6.515810012817383 29.10695838928223 14.55347919464111 C 29.10695838928223 22.59113883972168 22.59113883972168 29.10695838928223 14.55347919464111 29.10695838928223 C 6.515810012817383 29.10695838928223 0 22.59113883972168 0 14.55347919464111 C 0 6.515810012817383 6.515810012817383 0 14.55347919464111 0 Z" stroke="none" fill="#1da8a5"/>
    </g>
    <text id="_" data-name="!" transform="translate(16 24)" fill="#1da8a5" font-size="21" font-family="NotoSansCJKkr-Medium, Noto Sans CJK KR" font-weight="500" letter-spacing="-0.02em"><tspan x="-3.602" y="0">!</tspan></text>
  </g>
</svg>
