<svg id="_008_icon_56_01_etc_my_cell_phone" data-name="008 icon/56/01 etc/my cell phone" xmlns="http://www.w3.org/2000/svg" xmlns:xlink="http://www.w3.org/1999/xlink" width="56" height="56" viewBox="0 0 56 56">
  <defs>
    <clipPath id="clip-path">
      <rect id="사각형_22468" data-name="사각형 22468" width="56" height="56" transform="translate(10278 9017)" fill="#fff" stroke="#707070" stroke-width="1"/>
    </clipPath>
  </defs>
  <g id="_008_icon_56_01_etc_my_cell_phone-2" data-name="008 icon/56/01 etc/my cell phone" transform="translate(-10278 -9017)" clip-path="url(#clip-path)">
    <rect id="사각형_22466" data-name="사각형 22466" width="28.06" height="50.859" rx="6" transform="translate(10282.9 9019.188)" fill="#d4faf9" stroke="#222" stroke-linecap="round" stroke-linejoin="round" stroke-width="2"/>
    <rect id="사각형_22467" data-name="사각형 22467" width="28.06" height="34.829" transform="translate(10282.9 9027.265)" fill="#fff" stroke="#222" stroke-linecap="round" stroke-linejoin="round" stroke-width="2"/>
    <line id="선_5893" data-name="선 5893" x2="5.261" transform="translate(10294.509 9023.163)" fill="#fff" stroke="#222" stroke-linejoin="round" stroke-width="2"/>
    <ellipse id="타원_2619" data-name="타원 2619" cx="1.403" cy="1.403" rx="1.403" ry="1.403" transform="matrix(0.999, -0.035, 0.035, 0.999, 10295.667, 9065.07)"/>
    <path id="패스_57768" data-name="패스 57768" d="M364.347,282.219l4.139,4.241,7.7-7.89" transform="translate(9927.109 8762.018)" fill="none" stroke="#222" stroke-linecap="round" stroke-linejoin="round" stroke-width="2"/>
    <g id="Vector_Smart_Object" data-name="Vector Smart Object" transform="translate(10305.521 9043.526)">
      <circle id="타원_2620" data-name="타원 2620" cx="13.263" cy="13.263" r="13.263" transform="translate(0 0)" fill="#fde9a2" stroke="#222" stroke-miterlimit="10" stroke-width="2"/>
      <path id="패스_57769" data-name="패스 57769" d="M73.5,153.772a.476.476,0,0,1,.425-.473,2.482,2.482,0,0,0,2.371-2.8.475.475,0,0,1,.827-.319,7.815,7.815,0,0,0,5.463,2.123,10.258,10.258,0,0,0,3.447-.634.475.475,0,0,1,.635.447v4.411a6.5,6.5,0,0,1-.076.942,7.315,7.315,0,0,0,.954-3.618v-1.931a7.373,7.373,0,0,0-7.364-7.364h-.2a7.372,7.372,0,0,0-7.363,7.364v1.931a7.32,7.32,0,0,0,.954,3.618,6.507,6.507,0,0,1-.076-.942Z" transform="translate(-66.553 -139.791)" fill="#161616"/>
      <path id="패스_57770" data-name="패스 57770" d="M87.659,153.01v-1.931a8.324,8.324,0,0,0-8.315-8.315h-.2a8.324,8.324,0,0,0-8.314,8.315v1.931a8.3,8.3,0,0,0,2.995,6.384,6.5,6.5,0,0,0,5.343,2.8h.151a6.5,6.5,0,0,0,5.342-2.8A8.3,8.3,0,0,0,87.659,153.01Zm-8.337,8.235h-.151a5.523,5.523,0,0,1-3.36-1.141,5.592,5.592,0,0,1-1.278-1.362,5.523,5.523,0,0,1-.921-3.057v-2.343a3.274,3.274,0,0,0,2.7-2.722,8.923,8.923,0,0,0,5.44,1.791,10.891,10.891,0,0,0,3.132-.481v3.755a5.524,5.524,0,0,1-.921,3.057A5.591,5.591,0,0,1,82.68,160.1,5.522,5.522,0,0,1,79.322,161.245Zm-7.538-8.235v-1.931a7.372,7.372,0,0,1,7.363-7.364h.2a7.373,7.373,0,0,1,7.364,7.364v1.931a7.315,7.315,0,0,1-.954,3.618,6.5,6.5,0,0,0,.076-.942v-4.411a.475.475,0,0,0-.635-.447,10.258,10.258,0,0,1-3.447.634,7.815,7.815,0,0,1-5.463-2.123.475.475,0,0,0-.827.319,2.482,2.482,0,0,1-2.371,2.8.476.476,0,0,0-.425.473v2.751a6.509,6.509,0,0,0,.076.942A7.32,7.32,0,0,1,71.784,153.01Z" transform="translate(-65.715 -138.953)" fill="#222" stroke="#222" stroke-width="0.8"/>
      <path id="패스_57771" data-name="패스 57771" d="M86.408,165.666a5.524,5.524,0,0,0,.921-3.057v-3.755a10.892,10.892,0,0,1-3.132.481,8.923,8.923,0,0,1-5.44-1.791,3.274,3.274,0,0,1-2.7,2.722v2.343a5.523,5.523,0,0,0,.921,3.057,5.592,5.592,0,0,0,1.278,1.362,5.523,5.523,0,0,0,3.36,1.141h.151a5.522,5.522,0,0,0,3.359-1.14A5.591,5.591,0,0,0,86.408,165.666Z" transform="translate(-68.164 -145.877)" fill="#fff"/>
      <path id="패스_57772" data-name="패스 57772" d="M81.6,164.716a.814.814,0,1,0-.814-.813A.813.813,0,0,0,81.6,164.716Z" transform="translate(-70.509 -148.067)" fill="#222"/>
      <path id="패스_57773" data-name="패스 57773" d="M90.792,164.715a.813.813,0,1,0-.814-.813A.813.813,0,0,0,90.792,164.715Z" transform="translate(-74.816 -148.067)" fill="#222"/>
      <path id="패스_57774" data-name="패스 57774" d="M82.359,168a.475.475,0,0,0,0,.672,3.145,3.145,0,0,0,4.442,0,.475.475,0,0,0-.672-.673,2.194,2.194,0,0,1-3.1,0A.475.475,0,0,0,82.359,168Z" transform="translate(-71.049 -149.898)" stroke="#000" stroke-width="0.5"/>
    </g>
  </g>
</svg>
