<svg id="_008_icon_56_01_etc_store" data-name="008 icon/56/01 etc/store" xmlns="http://www.w3.org/2000/svg" xmlns:xlink="http://www.w3.org/1999/xlink" width="56" height="56" viewBox="0 0 56 56">
  <defs>
    <clipPath id="clip-path">
      <rect id="사각형_22433" data-name="사각형 22433" width="56" height="56" transform="translate(5464 8620)" fill="#fff" stroke="#707070" stroke-width="1"/>
    </clipPath>
  </defs>
  <g id="_008_icon_56_01_etc_store-2" data-name="008 icon/56/01 etc/store" transform="translate(-5464 -8620)" clip-path="url(#clip-path)">
    <g id="사각형_22431" data-name="사각형 22431" transform="translate(5468.342 8640.745)" fill="#fff" stroke="#000" stroke-width="2">
      <rect width="47.316" height="30.298" rx="3" stroke="none"/>
      <rect x="1" y="1" width="45.316" height="28.298" rx="2" fill="none"/>
    </g>
    <g id="사각형_22432" data-name="사각형 22432" transform="translate(5477.344 8653.112)" fill="#fff" stroke="#000" stroke-width="2">
      <path d="M5,0H24.312a5,5,0,0,1,5,5V17.931a0,0,0,0,1,0,0H0a0,0,0,0,1,0,0V5A5,5,0,0,1,5,0Z" stroke="none"/>
      <path d="M5,1H24.312a4,4,0,0,1,4,4V16.931a0,0,0,0,1,0,0H1a0,0,0,0,1,0,0V5A4,4,0,0,1,5,1Z" fill="none"/>
    </g>
    <g id="패스_57729" data-name="패스 57729" transform="translate(5466.254 8627.292)" fill="#fff">
      <path d="M 48.36011505126953 19.21683883666992 L 3.132575511932373 19.21683883666992 C 1.947327136993408 19.21683883666992 1.053031444549561 18.6315860748291 1.002278566360474 18.08961486816406 L 3.079835414886475 2.305999517440796 L 3.088385581970215 2.241029500961304 L 3.088385581970215 2.175499439239502 C 3.088385581970215 1.620609402656555 4.00039529800415 0.9999994039535522 5.220955371856689 0.9999994039535522 L 46.27173614501953 0.9999994039535522 C 47.49229431152344 0.9999994039535522 48.40430450439453 1.620609402656555 48.40430450439453 2.175499439239502 L 48.40430450439453 2.241029500961304 L 48.41285705566406 2.305999517440796 L 50.49042129516602 18.08961486816406 C 50.43967056274414 18.6315860748291 49.54536437988281 19.21683883666992 48.36011505126953 19.21683883666992 Z" stroke="none"/>
      <path d="M 5.220954895019531 2 C 4.613666534423828 2 4.224178314208984 2.205766677856445 4.085945129394531 2.325113296508789 L 2.033203125 17.92014312744141 C 2.1959228515625 18.04100608825684 2.571178436279297 18.21683883666992 3.132575988769531 18.21683883666992 L 48.36011505126953 18.21683883666992 C 48.92150497436523 18.21683883666992 49.29676055908203 18.0410041809082 49.45947647094727 17.92014312744141 L 47.40674591064453 2.325113296508789 C 47.26851272583008 2.205766677856445 46.87902450561523 2 46.27173614501953 2 L 5.220954895019531 2 M 5.220954895019531 0 L 46.27173614501953 0 C 48.00180435180664 0 49.40430450439453 0.9739990234375 49.40430450439453 2.175498962402344 L 51.4926872253418 18.04133987426758 C 51.4926872253418 19.24283027648926 50.09018707275391 20.21683883666992 48.36011505126953 20.21683883666992 L 3.132575988769531 20.21683883666992 C 1.402496337890625 20.21683883666992 -3.814697265625e-06 19.24283027648926 -3.814697265625e-06 18.04133987426758 L 2.088386535644531 2.175498962402344 C 2.088386535644531 0.9739990234375 3.490886688232422 0 5.220954895019531 0 Z" stroke="none" fill="#000"/>
    </g>
    <g id="그룹_25372" data-name="그룹 25372" transform="translate(5486 8632.133)">
      <path id="패스_57730" data-name="패스 57730" d="M487.144,967.765l1.291-1.626h-1.511a2.21,2.21,0,0,0-1.506.489l-.115.143v-5.287h-1.535a.662.662,0,0,0-.653.67v9.865h1.535a.662.662,0,0,0,.653-.67v-2.624l1.243,1.561,1.057,1.331a.979.979,0,0,0,.783.4h2.141l-1.385-1.738Zm6.126,1.79V966.14H491.08v3.836a1.927,1.927,0,0,0,2,2.043h1.684a.662.662,0,0,0,.656-.67v-1.191h-1.563A.6.6,0,0,1,493.271,969.556Zm2.515-4.621v-1.487l-.135.146a2.25,2.25,0,0,1-1.6.433h-.783v-2.541h-1.536a.663.663,0,0,0-.655.669v1.873h-2.608a1.847,1.847,0,0,0-1.612.764l-1.282,1.615a2.332,2.332,0,0,1,1.5-.587h6.98a2.066,2.066,0,0,0,1.557-.455A.621.621,0,0,0,495.786,964.935Z" transform="translate(-483.115 -961.485)" fill="#3accc8"/>
    </g>
  </g>
</svg>
