<svg id="_008_icon_56_01_etc_shopping" data-name="008 icon/56/01 etc/shopping" xmlns="http://www.w3.org/2000/svg" xmlns:xlink="http://www.w3.org/1999/xlink" width="56" height="56" viewBox="0 0 56 56">
  <defs>
    <clipPath id="clip-path">
      <rect id="사각형_22426" data-name="사각형 22426" width="56" height="56" transform="translate(5464 8550)" fill="#fff" stroke="#707070" stroke-width="1"/>
    </clipPath>
    <clipPath id="clip-path-2">
      <rect id="사각형_22425" data-name="사각형 22425" width="56" height="56" transform="translate(4266 8755.771)" fill="#fff" stroke="#707070" stroke-width="1"/>
    </clipPath>
  </defs>
  <g id="_008_icon_56_01_etc_shopping-2" data-name="008 icon/56/01 etc/shopping" transform="translate(-5464 -8550)" clip-path="url(#clip-path)">
    <g id="마스크_그룹_18421" data-name="마스크 그룹 18421" transform="translate(1198 -205.771)" clip-path="url(#clip-path-2)">
      <g id="패스_57723" data-name="패스 57723" transform="translate(4273.229 8766.139)" fill="#fff">
        <path d="M 32.69005584716797 42.38127899169922 L 1.55795431137085 42.38127899169922 C 0.1554144322872162 42.38127899169922 -0.9870988130569458 41.25411987304688 -0.999885618686676 39.86364364624023 L 0.7776543498039246 5.363447666168213 L 0.7789743542671204 5.337737560272217 L 0.7789743542671204 5.311997413635254 C 0.7789743542671204 2.934357643127441 2.724514245986938 0.999997615814209 5.115904331207275 0.999997615814209 L 29.13210487365723 0.999997615814209 C 31.52349472045898 0.999997615814209 33.46903610229492 2.934357643127441 33.46903610229492 5.311997413635254 L 33.46903610229492 5.337737560272217 L 33.47035598754883 5.363447666168213 L 35.24789428710938 39.86364364624023 C 35.235107421875 41.25411987304688 34.09259414672852 42.38127899169922 32.69005584716797 42.38127899169922 Z" stroke="none"/>
        <path d="M 5.115903854370117 1.999996185302734 C 3.275915145874023 1.999996185302734 1.778972625732422 3.485748291015625 1.778972625732422 5.311988830566406 L 1.778972625732422 5.363475799560547 L 0.000545501708984375 39.88089752197266 C 0.0225677490234375 40.71192932128906 0.712738037109375 41.38127899169922 1.557952880859375 41.38127899169922 L 32.69005584716797 41.38127899169922 C 33.53527069091797 41.38127899169922 34.22544097900391 40.71192932128906 34.24746322631836 39.88089752197266 L 32.46903610229492 5.363475799560547 L 32.46903610229492 5.311988830566406 C 32.46903610229492 3.485748291015625 30.97209358215332 1.999996185302734 29.13210487365723 1.999996185302734 L 5.115903854370117 1.999996185302734 M 5.115903854370117 -3.814697265625e-06 L 29.13210487365723 -3.814697265625e-06 C 32.07960510253906 -3.814697265625e-06 34.46903610229492 2.378257751464844 34.46903610229492 5.311988830566406 L 36.24800491333008 39.83994674682617 C 36.24800491333008 41.79576873779297 34.65505599975586 43.38127899169922 32.69005584716797 43.38127899169922 L 1.557952880859375 43.38127899169922 C -0.4070549011230469 43.38127899169922 -1.999996185302734 41.79576873779297 -1.999996185302734 39.83994674682617 L -0.2210273742675781 5.311988830566406 C -0.2210273742675781 2.378257751464844 2.168403625488281 -3.814697265625e-06 5.115903854370117 -3.814697265625e-06 Z" stroke="none" fill="#000"/>
      </g>
      <path id="패스_57724" data-name="패스 57724" d="M18.178,19.376v-8.4c0-4.638,2.559-8.4,7.2-8.4s7.2,3.759,7.2,8.4v8.4" transform="translate(4264.815 8755.16)" fill="none" stroke="#000" stroke-linecap="round" stroke-linejoin="round" stroke-width="2"/>
      <path id="패스_57725" data-name="패스 57725" d="M42.078,25.333H53.057a3.486,3.486,0,0,1,3.486,3.486V50.675a3.486,3.486,0,0,1-3.486,3.486H42.078a3.486,3.486,0,0,1-3.486-3.486V28.819a3.486,3.486,0,0,1,3.486-3.486" transform="translate(4259.295 8754.485)" fill="#fff"/>
      <rect id="사각형_22424" data-name="사각형 22424" width="17.951" height="28.828" rx="4" transform="translate(4297.887 8779.818)" fill="#fff" stroke="#000" stroke-miterlimit="10" stroke-width="2"/>
      <path id="패스_57726" data-name="패스 57726" d="M48.856,52.619a1,1,0,1,1-.964,1.034,1,1,0,0,1,.964-1.034" transform="translate(4258.1 8750.978)"/>
      <line id="선_5890" data-name="선 5890" x2="5.229" transform="translate(4304.248 8783.886)" fill="none" stroke="#000" stroke-miterlimit="10" stroke-width="2"/>
    </g>
  </g>
</svg>
