<svg xmlns="http://www.w3.org/2000/svg" xmlns:xlink="http://www.w3.org/1999/xlink" width="100" height="20" viewBox="0 0 100 20">
  <defs>
    <linearGradient id="linear-gradient" x1="0.5" y1="1.282" x2="0.5" y2="-0.254" gradientUnits="objectBoundingBox">
      <stop offset="0" stop-color="#323232"/>
      <stop offset="1" stop-color="#1d2021"/>
    </linearGradient>
    <linearGradient id="linear-gradient-2" x1="0.5" y1="-0.224" x2="0.5" y2="1.227" gradientUnits="objectBoundingBox">
      <stop offset="0" stop-color="#333"/>
      <stop offset="1"/>
    </linearGradient>
    <linearGradient id="linear-gradient-3" x1="0.5" y1="1.017" x2="0.5" y2="-0.004" xlink:href="#linear-gradient"/>
    <linearGradient id="linear-gradient-4" x1="0.5" y1="0" x2="0.5" y2="0.982" xlink:href="#linear-gradient-2"/>
    <radialGradient id="radial-gradient" cx="1.182" cy="0.473" r="0.404" gradientTransform="translate(-133321.734) scale(253.835 1)" gradientUnits="objectBoundingBox">
      <stop offset="0" stop-color="#fff"/>
      <stop offset="1" stop-color="#1a1818"/>
    </radialGradient>
    <radialGradient id="radial-gradient-2" cx="0.91" cy="0.969" r="0.404" gradientTransform="translate(-10.735) scale(2.13 1)" xlink:href="#radial-gradient"/>
    <radialGradient id="radial-gradient-3" cx="0.047" cy="0.039" r="0.675" gradientTransform="translate(-5.727) scale(1.714 1)" xlink:href="#radial-gradient"/>
    <radialGradient id="radial-gradient-4" cx="1.182" cy="0.473" r="0.404" gradientTransform="translate(-93484.555) scale(181.06 1)" xlink:href="#radial-gradient"/>
    <radialGradient id="radial-gradient-5" cx="0.303" cy="0.95" r="1.143" gradientTransform="translate(4.101) scale(0.413 1)" xlink:href="#radial-gradient"/>
    <radialGradient id="radial-gradient-6" cx="0.44" cy="0.953" r="1.071" gradientTransform="translate(2.267) scale(0.51 1)" xlink:href="#radial-gradient"/>
    <linearGradient id="linear-gradient-5" x1="0.5" y1="0.996" x2="0.5" y2="0.629" gradientUnits="objectBoundingBox">
      <stop offset="0" stop-color="#fff"/>
      <stop offset="1" stop-color="#1a1718"/>
    </linearGradient>
    <radialGradient id="radial-gradient-7" cx="0.243" cy="0.764" r="0.291" gradientTransform="translate(-1.196) scale(1.219 1)" xlink:href="#radial-gradient"/>
    <linearGradient id="linear-gradient-6" x1="0.5" y1="0.691" x2="0.5" y2="0.384" gradientUnits="objectBoundingBox">
      <stop offset="0" stop-color="#fff"/>
      <stop offset="0.534" stop-color="#1a1718"/>
      <stop offset="1" stop-color="#fff"/>
    </linearGradient>
    <radialGradient id="radial-gradient-8" cx="0.23" cy="1" r="4.208" gradientTransform="translate(6.031) scale(0.146 1)" xlink:href="#radial-gradient"/>
    <radialGradient id="radial-gradient-9" cx="0.09" cy="0.032" r="0.399" gradientTransform="translate(686.407 173.984) rotate(180) scale(2.17 1)" xlink:href="#radial-gradient"/>
    <linearGradient id="linear-gradient-7" x1="0.994" y1="0.03" x2="-0.002" y2="1.081" gradientUnits="objectBoundingBox">
      <stop offset="0" stop-color="#c1051c"/>
      <stop offset="0.478" stop-color="#8e0d18"/>
      <stop offset="0.584" stop-color="#910c18"/>
      <stop offset="0.675" stop-color="#9b0a19"/>
      <stop offset="0.759" stop-color="#ad081a"/>
      <stop offset="0.826" stop-color="#c1051c"/>
      <stop offset="0.927" stop-color="#860c17"/>
      <stop offset="0.946" stop-color="#830c16"/>
      <stop offset="0.96" stop-color="#790c15"/>
      <stop offset="0.973" stop-color="#690c14"/>
      <stop offset="0.984" stop-color="#530c12"/>
      <stop offset="0.994" stop-color="#370c10"/>
      <stop offset="1" stop-color="#250d0f"/>
    </linearGradient>
    <linearGradient id="linear-gradient-8" x1="0.272" y1="-0.174" x2="0.799" y2="1.387" gradientUnits="objectBoundingBox">
      <stop offset="0" stop-color="#a80b1b"/>
      <stop offset="0.017" stop-color="#ca001b"/>
      <stop offset="0.036" stop-color="#d31825"/>
      <stop offset="0.069" stop-color="#e23c34"/>
      <stop offset="0.095" stop-color="#ea513d"/>
      <stop offset="0.112" stop-color="#ee5a41"/>
      <stop offset="0.263" stop-color="#ea3732"/>
      <stop offset="0.478" stop-color="#e6001b"/>
      <stop offset="0.708" stop-color="#e6001b"/>
      <stop offset="1" stop-color="#ca001b"/>
    </linearGradient>
    <radialGradient id="radial-gradient-10" cx="0.036" cy="0.709" r="7.143" gradientTransform="translate(1.231) scale(0.134 1)" gradientUnits="objectBoundingBox">
      <stop offset="0" stop-color="#040505"/>
      <stop offset="0.236" stop-color="#fff"/>
      <stop offset="0.758" stop-color="#fff"/>
      <stop offset="0.784" stop-color="#fafafa"/>
      <stop offset="0.814" stop-color="#ebebeb"/>
      <stop offset="0.847" stop-color="#d4d4d4"/>
      <stop offset="0.881" stop-color="#b3b3b3"/>
      <stop offset="0.916" stop-color="#888989"/>
      <stop offset="0.952" stop-color="#555"/>
      <stop offset="0.988" stop-color="#181919"/>
      <stop offset="1" stop-color="#040505"/>
    </radialGradient>
  </defs>
  <g id="로고" transform="translate(-102.004 -74)">
    <g id="그룹_488" data-name="그룹 488" transform="translate(102.004 74)">
      <path id="패스_1987" data-name="패스 1987" d="M196.393,134.575l-3.516-4.4,5.109-6.393H195.2a3.4,3.4,0,0,0-2.867,1.293l-2.692,3.365v-9.246h-2.7a1.162,1.162,0,0,0-1.148,1.172v17.25h2.7a1.161,1.161,0,0,0,1.148-1.171v-4.589l2.188,2.729,1.861,2.329a1.724,1.724,0,0,0,1.377.7h3.769Z" transform="translate(-185.786 -119.194)" fill="url(#linear-gradient)"/>
      <path id="패스_1988" data-name="패스 1988" d="M200.948,140.109c-.221-.244-1.087-1.406-2.175-2.711-1.438-1.726-2.908-3.7-3.272-4.143.562-.7,4.228-5.292,4.665-5.835l.192-.23h-2.24a3.353,3.353,0,0,0-2.432,1.131l-3.211,4.019a.063.063,0,0,1-.046.022.062.062,0,0,1-.061-.063v-9.7H190a.822.822,0,0,0-.811.831v16.917h2.364a.822.822,0,0,0,.811-.831v-5.47a.061.061,0,0,1,.061-.062.06.06,0,0,1,.045.02l2.709,3.394,1.888,2.356a1.57,1.57,0,0,0,1.129.592h2.963Z" transform="translate(-188.853 -122.261)" fill="url(#linear-gradient-2)"/>
      <path id="패스_1989" data-name="패스 1989" d="M330.467,137.615a3.381,3.381,0,0,1-3.52-3.574V120.363a1.163,1.163,0,0,1,1.153-1.169h2.7v14.113a1.044,1.044,0,0,0,1.033,1.052h2.75v2.085a1.164,1.164,0,0,1-1.154,1.171Z" transform="translate(-313.242 -119.194)" fill="url(#linear-gradient-3)"/>
      <path id="패스_1990" data-name="패스 1990" d="M333.525,140.313a3.044,3.044,0,0,1-3.183-3.235V123.391a.824.824,0,0,1,.816-.83h2.365v13.781a1.385,1.385,0,0,0,1.37,1.4h2.413v1.743a.824.824,0,0,1-.817.831Z" transform="translate(-316.3 -122.227)" fill="url(#linear-gradient-4)"/>
      <rect id="사각형_128" data-name="사각형 128" width="0.047" height="11.889" transform="translate(0.338 6.179)" opacity="0.5" fill="url(#radial-gradient)" style="mix-blend-mode: screen;isolation: isolate"/>
      <path id="패스_1991" data-name="패스 1991" d="M192.1,242.613h2.11a.822.822,0,0,0,.776-.852v-5.295h-.048v5.295a.792.792,0,0,1-.728.8H192.1Z" transform="translate(-191.474 -224.527)" opacity="0.25" fill="url(#radial-gradient-2)" style="mix-blend-mode: screen;isolation: isolate"/>
      <path id="패스_1992" data-name="패스 1992" d="M330.391,128.014v-4.69a.779.779,0,0,1,.717-.714h2.367l.048-.048h-2.415a.829.829,0,0,0-.766.763v4.69Z" transform="translate(-316.223 -122.227)" opacity="0.25" fill="url(#radial-gradient-3)" style="mix-blend-mode: screen;isolation: isolate"/>
      <path id="패스_1993" data-name="패스 1993" d="M330.391,186.7v-8.863h-.049V186.7Z" transform="translate(-316.19 -171.829)" opacity="0.25" fill="url(#radial-gradient-4)" style="mix-blend-mode: screen;isolation: isolate"/>
      <path id="패스_1994" data-name="패스 1994" d="M361.868,257.457a2.182,2.182,0,0,0,.045.488,1.374,1.374,0,0,0,.444.738,1.538,1.538,0,0,0,1.053.354h2.282v-.049l-2.316,0a1.383,1.383,0,0,1-1.13-.481,1.347,1.347,0,0,1-.294-.579,2.142,2.142,0,0,1-.036-.476Z" transform="translate(-344.695 -243.484)" opacity="0.5" fill="url(#radial-gradient-5)" style="mix-blend-mode: screen;isolation: isolate"/>
      <path id="패스_1995" data-name="패스 1995" d="M336.658,270.153h-2.973a2.911,2.911,0,0,1-3.068-3.056h-.048a2.96,2.96,0,0,0,3.116,3.105h2.973Z" transform="translate(-316.504 -252.115)" opacity="0.25" fill="url(#radial-gradient-6)" style="mix-blend-mode: screen;isolation: isolate"/>
      <path id="패스_1996" data-name="패스 1996" d="M330.342,189.921h3.181v-2.039h-3.181Z" transform="translate(-316.223 -180.937)" fill="url(#linear-gradient-5)" style="mix-blend-mode: multiply;isolation: isolate"/>
      <path id="패스_1997" data-name="패스 1997" d="M252.1,175.285s4.264-5.247,4.737-5.827h-.062l-4.72,5.809Z" transform="translate(-245.59 -164.347)" opacity="0.25" fill="url(#radial-gradient-7)" style="mix-blend-mode: screen;isolation: isolate"/>
      <path id="패스_1998" data-name="패스 1998" d="M228.432,167.773a3.278,3.278,0,0,0-2.356,1.076l-3.205,3.943,2.971.951s4.321-5.32,4.8-5.906C230.066,167.837,228.432,167.773,228.432,167.773Z" transform="translate(-219.267 -162.832)" fill="url(#linear-gradient-6)" style="mix-blend-mode: multiply;isolation: isolate"/>
      <path id="패스_1999" data-name="패스 1999" d="M269.028,292.96a1.534,1.534,0,0,0,1.069.535h2.6l-.044-.048H270.1a1.746,1.746,0,0,1-1.069-.488Z" transform="translate(-260.901 -275.411)" opacity="0.25" fill="url(#radial-gradient-8)" style="mix-blend-mode: screen;isolation: isolate"/>
      <path id="패스_2000" data-name="패스 2000" d="M192.077,122.6h-2.109a.823.823,0,0,0-.777.852v5.411h.048v-5.411a.792.792,0,0,1,.729-.8h2.109Z" transform="translate(-188.853 -122.261)" opacity="0.25" fill="url(#radial-gradient-9)" style="mix-blend-mode: screen;isolation: isolate"/>
      <g id="그룹_487" data-name="그룹 487" transform="translate(3.907 4.261)">
        <path id="패스_2001" data-name="패스 2001" d="M243.209,162c-2.18,0-10.085.005-10.085.005a3.5,3.5,0,0,0-2.9,1.259l-1.952,2.406s0,0,0,0a4.5,4.5,0,0,1,2.678-.86h12.267c1.555,0,3.05-.476,3.05-1.7a10.345,10.345,0,0,0-.14-1.9S245.388,162,243.209,162Z" transform="translate(-228.264 -161.205)" fill="url(#linear-gradient-7)"/>
      </g>
      <path id="패스_2002" data-name="패스 2002" d="M228.558,159.64l2.256-2.78a3.279,3.279,0,0,1,2.838-1.314h9.822a4.013,4.013,0,0,0,2.809-.745l.239-.252v2.559a1.051,1.051,0,0,1-.308.739,3.691,3.691,0,0,1-2.74.783H231.19A4.149,4.149,0,0,0,228.558,159.64Z" transform="translate(-224.622 -150.959)" fill="url(#linear-gradient-8)"/>
      <path id="패스_2003" data-name="패스 2003" d="M246.408,181.637c-.012.246-.338,1.333-3.031,1.333H231.282a3.964,3.964,0,0,0-2.811,1.046l-.021.024a4.161,4.161,0,0,1,2.832-1.018h12.095c3.037,0,3.031-1.384,3.031-1.384Z" transform="translate(-224.525 -175.32)" opacity="0.7" fill="url(#radial-gradient-10)" style="mix-blend-mode: screen;isolation: isolate"/>
    </g>
    <path id="패스_2004" data-name="패스 2004" d="M4.6-15.286a2.337,2.337,0,0,1-1.762-.506,2.678,2.678,0,0,1-.451-1.77V-24.81a2.68,2.68,0,0,1,.41-1.728A2.318,2.318,0,0,1,4.521-27H8.864a5.588,5.588,0,0,0,1.844-.211l.533-.211v1.686a.53.53,0,0,1-.082.295,1.375,1.375,0,0,1-.164.211,2.394,2.394,0,0,1-.7.295,5.827,5.827,0,0,1-1.434.126H5.422a.8.8,0,0,0-.492.126.681.681,0,0,0-.164.548v5.815q0,.506.164.632a.969.969,0,0,0,.574.126h4.753a5.241,5.241,0,0,0,1.762-.211l.533-.211v1.77a.53.53,0,0,1-.082.295,1.375,1.375,0,0,1-.164.211,1.46,1.46,0,0,1-.656.295,5.9,5.9,0,0,1-1.393.126ZM14.19-27.423a.909.909,0,0,1,.2-.59.653.653,0,0,1,.533-.253h1.639v5.647H19.6V-21.1a.909.909,0,0,1-.2.59.653.653,0,0,1-.533.253H16.566v8.849a.687.687,0,0,1-.246.548.854.854,0,0,1-.574.211H14.19Zm5.89,7v-2.107a4.3,4.3,0,0,1,.328-1.643,3.774,3.774,0,0,1,.983-1.391,3.935,3.935,0,0,1,1.434-1.054A4.724,4.724,0,0,1,24.751-27h3.442a5.241,5.241,0,0,0,1.762-.211l.533-.211v1.854a.53.53,0,0,1-.082.295q-.082.126-.164.126a1.46,1.46,0,0,1-.656.295,5.9,5.9,0,0,1-1.393.126H25a2.83,2.83,0,0,0-1.188.211,2.623,2.623,0,0,0-.778.548,3.326,3.326,0,0,0-.41.759,1.988,1.988,0,0,0-.164.674v2.023a2.728,2.728,0,0,0,.574,1.686,2.021,2.021,0,0,0,1.721.759h.819a2.1,2.1,0,0,0,1.68-.716,2.812,2.812,0,0,0,.615-1.9v-2.781a1.423,1.423,0,0,0-.041-.337.54.54,0,0,0-.123-.253h2.54v3.287a5.772,5.772,0,0,1-.328,1.938,6.219,6.219,0,0,1-.819,1.6,3.679,3.679,0,0,1-1.352,1.011,4.181,4.181,0,0,1-1.68.337H24.341A4.1,4.1,0,0,1,21.268-17.1,4.572,4.572,0,0,1,20.08-20.428Zm12.947-7a.909.909,0,0,1,.2-.59.653.653,0,0,1,.533-.253H35.4V-11.41a.687.687,0,0,1-.246.548.759.759,0,0,1-.492.211H33.027ZM41.7-20.006h2.7a5.637,5.637,0,0,0,1.8-.211l.574-.211v1.77a.53.53,0,0,1-.082.295.623.623,0,0,1-.246.211,1.41,1.41,0,0,1-.615.295,5.374,5.374,0,0,1-1.352.126H40.637q-1.311,0-1.68-.548a3.159,3.159,0,0,1-.369-1.728v-1.686A2.68,2.68,0,0,1,39-23.419a2.176,2.176,0,0,1,1.639-.464H42.6a.841.841,0,0,0,.451-.126q.2-.126.2-.548V-25.4H39.49a.653.653,0,0,1-.533-.253.909.909,0,0,1-.2-.59v-1.348h5.408a1.477,1.477,0,0,1,1.106.379,1.448,1.448,0,0,1,.369,1.054v2.276a2.89,2.89,0,0,1-.369,1.77,2.159,2.159,0,0,1-1.6.421H41.7a.951.951,0,0,0-.615.126,1.023,1.023,0,0,0-.123.632v.253q0,.506.123.59A1.343,1.343,0,0,0,41.7-20.006Zm6.309-7.164a.753.753,0,0,1,.2-.548.71.71,0,0,1,.533-.211h1.557v10.282a.82.82,0,0,1-.246.59.7.7,0,0,1-.492.253H48.012v-4.973H46.783a.71.71,0,0,1-.533-.211.753.753,0,0,1-.2-.548v-1.6h1.967Zm3.769-.253a.909.909,0,0,1,.2-.59.653.653,0,0,1,.533-.253h1.557v10.7a.687.687,0,0,1-.246.548.854.854,0,0,1-.574.211H51.781Zm-.41,14.833a.839.839,0,0,0-.164-.59.93.93,0,0,0-.656-.169H42.44a.71.71,0,0,1-.533-.211.874.874,0,0,1-.2-.632v-1.433h9.505a2.7,2.7,0,0,1,1.926.59,2.469,2.469,0,0,1,.615,1.854v3.708a.687.687,0,0,1-.246.548.759.759,0,0,1-.492.211H51.371ZM62.014-25.232q-.492,0-.574.169a1.484,1.484,0,0,0-.082.59v1.1H67.75a5.588,5.588,0,0,0,1.844-.211l.533-.211v1.77a.417.417,0,0,1-.082.211,1.375,1.375,0,0,1-.164.211,2.394,2.394,0,0,1-.7.295,5.827,5.827,0,0,1-1.434.126H61.358v1.264a1.023,1.023,0,0,0,.123.632.951.951,0,0,0,.615.126h8.112v1.433a.909.909,0,0,1-.2.59.653.653,0,0,1-.533.253H61.195a2.513,2.513,0,0,1-1.762-.506,2.524,2.524,0,0,1-.533-1.854v-5.984a2.35,2.35,0,0,1,.492-1.728,2.5,2.5,0,0,1,1.721-.464h6.719a5.241,5.241,0,0,0,1.762-.211l.533-.211v1.77a.66.66,0,0,1-.082.253q-.082.169-.164.169a1.46,1.46,0,0,1-.656.295,5.9,5.9,0,0,1-1.393.126ZM56.77-14.865h14.5a5.241,5.241,0,0,0,1.762-.211l.533-.211v1.854a.53.53,0,0,1-.082.295,1.375,1.375,0,0,1-.164.211,1.46,1.46,0,0,1-.656.295,5.9,5.9,0,0,1-1.393.126H56.032v-1.6a.687.687,0,0,1,.246-.548A.759.759,0,0,1,56.77-14.865Z" transform="translate(128.436 102.713)"/>
  </g>
</svg>
